<?xml version="1.0" encoding="UTF-8"?> <svg xmlns="http://www.w3.org/2000/svg" width="99" height="36" viewBox="0 0 99 36" fill="none"> <path d="M96.6252 34.4824C82.1977 32.1812 65.0054 30.4786 48.2647 30.7681C34.8767 31.0024 21.7716 32.5032 10.6228 35.9693L10.6109 35.969C9.88458 36.1053 8.28364 35.775 7.31368 35.33C7.04477 35.2117 6.81206 35.0703 6.66215 34.9313C6.47744 34.7669 6.38811 34.5809 6.44071 34.3993C6.46832 34.2659 6.57827 34.1472 6.74711 34.0425L6.75931 34.0306L6.77111 34.031C16.4197 30.4453 33.1172 28.7867 50.1092 28.8223C67.8945 28.8581 86.0168 30.7481 96.6926 34.2036L98.4405 34.7704L96.6252 34.4824Z" fill="white"></path> <path d="M25.5294 0.499528C26.1853 0.218507 26.874 0.0968167 27.4744 0.290938C27.7923 0.394364 28.0146 0.544994 28.1298 0.73018C28.2566 0.927859 28.2647 1.14776 28.1895 1.39051C28.1266 1.60914 27.9807 1.8262 27.7876 2.04238C27.2929 2.58275 26.4437 3.09213 25.5645 3.27139C24.9347 3.40636 24.3536 3.46899 23.9523 3.40059C23.7399 3.36011 23.5753 3.29605 23.4706 3.18425C23.3544 3.06002 23.2982 2.88813 23.3373 2.68128C23.3763 2.47442 23.4872 2.22012 23.7176 1.90692C24.1178 1.35263 24.8018 0.815815 25.5294 0.499528ZM17.709 10.5379C15.9213 12.6172 14.2446 15.1136 13.663 16.5801C14.1573 16.0643 15.0992 14.9827 16.1862 13.733C18.3727 11.1849 21.092 7.95062 21.781 7.12092C20.7466 7.38272 19.1949 8.80712 17.709 10.5379ZM81.6971 23.7465C81.7201 23.7835 81.767 23.8088 81.8376 23.8345C83.7291 24.6748 88.456 23.7847 91.2945 22.567C91.9743 22.2742 92.5481 21.955 92.9322 21.6447C93.2923 21.3583 93.4983 21.0813 93.4789 20.8367C93.4704 20.6412 93.3079 20.4551 92.9678 20.2658C92.2524 19.8742 91.1401 19.8417 89.9539 19.9787C88.2934 20.1681 86.4965 20.709 85.352 21.1763C85.0897 21.2814 83.4659 22.0818 82.4586 22.8326C82.171 23.0348 81.9305 23.2501 81.7972 23.4309C81.6883 23.5632 81.6507 23.6846 81.6971 23.7465ZM85.3297 19.0273C86.947 18.6052 88.4791 18.3158 90.3531 18.106C91.3972 17.9787 92.7941 17.9798 93.9746 18.1722C94.9188 18.336 95.7306 18.6316 96.125 19.1027C96.1829 19.1771 96.2406 19.2636 96.2865 19.3498C96.4459 19.719 96.4144 20.1701 96.2167 20.6548C96.0193 21.1151 95.6677 21.5971 95.1631 22.0273C94.7783 22.3743 94.3111 22.6954 93.7621 22.9539C91.9238 23.8359 90.1586 24.5971 88.1838 25.1592C86.209 25.7212 84.0245 26.0842 81.3478 26.1573C80.1277 26.196 78.6142 26.0951 77.6382 25.7109C77.2383 25.5571 76.9222 25.356 76.749 25.0965C76.5525 24.8243 76.5227 24.4941 76.6953 24.0944C76.8309 23.7795 77.1215 23.4064 77.602 23C77.3404 23.0685 77.0905 23.1372 76.8406 23.2181C75.4604 23.6201 73.4213 24.5698 70.6991 24.7058C68.2151 24.8298 65.9951 24.4474 62.7902 24.2544C62.0214 24.2159 61.2883 24.1659 60.6494 24.142C59.9871 24.1055 59.2892 24.0683 58.9496 23.8546C58.528 23.5905 58.5472 23.1636 59.4953 22.4117C60.4794 21.6362 62.2353 20.7283 64.2272 19.8614C66.9348 18.6779 71.2564 17.4921 73.4469 16.7753C73.6851 16.6942 73.8882 16.5881 73.9846 16.4922C73.9966 16.4802 74.0087 16.4682 74.0087 16.4682C74.0089 16.456 73.9968 16.468 73.985 16.4678C73.8914 16.4051 73.6673 16.3521 73.277 16.3327C72.4135 16.2925 70.1122 16.3433 69.0811 16.4099C68.1806 16.4545 67.3385 16.549 66.7916 16.6854C65.4245 17.0145 61.5503 18.5672 57.5927 20.155C53.957 21.6024 50.2617 23.0852 48.3573 23.6851L48.3455 23.6849C48.2383 23.7196 48.1549 23.7547 48.0716 23.7776C47.4049 23.9974 46.6788 24.2283 46.4218 24.0282C46.2348 23.8905 46.251 23.6344 46.5667 23.1763C46.9671 22.6098 47.5962 21.8278 48.2373 21.0337C49.2771 19.7587 50.3294 18.4595 50.3704 18.143C48.7182 17.8442 44.0346 20.3465 40.032 22.4829C37.4273 23.8758 35.1092 25.1153 34.0638 25.3281L34.04 25.3398L34.0281 25.3397L33.6494 25.3327L33.6139 25.3321L33.579 25.2948C33.2867 25.0819 33.7047 24.1862 34.399 23.0513C35.0565 21.989 35.9431 20.6868 36.7196 19.5901C36.9753 19.1797 37.1949 18.8052 37.33 18.5147C37.4161 18.3331 37.4777 18.1878 37.4913 18.0905C37.2305 18.1101 36.7778 18.2726 36.2172 18.5187C35.5373 18.8115 34.7014 19.2357 33.7695 19.7314C32.6581 20.3336 31.3902 21.0918 30.0748 21.8612C27.3956 23.4481 24.5012 25.1653 22.3328 25.968C21.892 26.1309 20.8914 26.491 20.1796 26.5757C19.3018 26.6817 18.7848 26.4525 19.6685 25.3211C19.8016 25.1526 20.6219 24.2642 21.6596 23.1235C23.4454 21.1662 25.9187 18.4646 26.7762 17.4793C26.1314 17.7971 25.0791 18.4126 23.8353 19.1468C20.1281 21.313 14.6512 24.509 12.3584 24.2839C11.6376 24.2097 11.2062 23.8233 11.1964 23.0174C9.82878 24.0667 6.95615 27.9574 4.62909 31.1012C4.32606 31.5107 4.0231 31.9202 3.70781 32.3539L3.696 32.3538L3.69577 32.3659C3.26193 32.8097 2.00903 33.3849 1.11805 33.564C0.868463 33.6205 0.631379 33.6406 0.454102 33.6251C0.241477 33.5968 0.0891194 33.5085 0.0208003 33.3485C-0.0127842 33.2381 -0.0104834 33.1038 0.0634331 32.9343L0.0636634 32.9221L0.0757022 32.9101C1.60717 30.5942 4.29968 27.5425 6.84712 24.6592C8.22339 23.1095 9.5394 21.6198 10.6276 20.2968L10.821 20.0684C11.0263 19.828 11.1113 19.7075 11.184 19.6112C11.2328 19.5266 11.27 19.4296 11.3437 19.2723C11.3934 19.1389 11.4671 18.9815 11.5774 18.7638C12.893 15.919 14.0063 13.8274 15.2082 12.0914C15.8271 11.2115 16.4925 10.3814 17.2278 9.6135C18.6621 8.12592 20.3539 6.81404 22.6528 5.30566C22.7846 5.21046 23.0471 5.0932 23.3208 5.0127C23.5588 4.94383 23.8199 4.89979 24.0448 4.9039C24.2931 4.92067 24.5167 4.998 24.6317 5.19544C24.6664 5.24486 24.6892 5.29412 24.7 5.35532C25.1907 7.11 18.4039 14.8723 14.733 19.0657C13.9117 20.0151 13.2355 20.784 12.8486 21.2531C12.8366 21.265 12.8245 21.2771 12.8125 21.2891C12.6787 21.4941 12.578 21.8463 12.5482 22.1998C12.507 22.5287 12.5491 22.8347 12.7006 22.9717C12.7125 22.972 12.7123 22.9841 12.7241 22.9844C13.8231 23.7858 18.9759 20.8524 23.7341 18.1439C26.9023 16.3462 29.8911 14.6429 31.4497 14.1954C31.8544 14.0685 32.1274 14.0247 32.3161 14.0648C32.4577 14.0917 32.5511 14.1667 32.6087 14.2654C32.6543 14.3639 32.6522 14.486 32.6144 14.6195C32.5392 14.8624 32.3325 15.176 32.0426 15.5125C31.934 15.6326 31.4391 16.1851 30.7393 16.9536C29.0133 18.8752 26.1045 22.1182 25.1018 23.2841C26.307 22.7324 28.9481 21.2913 30.8362 20.2637C31.362 19.9804 31.84 19.7205 32.2582 19.4962C33.2619 18.953 34.3373 18.3745 35.4009 17.7958L35.9865 17.4769C37.5519 16.6265 39.0454 15.836 40.2871 15.2239C41.529 14.5995 42.5188 14.1782 43.0417 14.0656L43.0653 14.0661L43.0772 14.0663L43.4559 14.0732L43.4914 14.0739L43.5383 14.0992C43.8187 14.3118 43.4008 15.2076 42.7065 16.3424C42.049 17.4047 41.1624 18.7069 40.3977 19.8038C40.13 20.2262 39.9107 20.5884 39.7754 20.8789C39.6895 21.0605 39.6276 21.2181 39.6142 21.3033C39.875 21.2836 40.3275 21.1332 40.8881 20.8872C41.568 20.5944 42.4041 20.158 43.3361 19.6623L43.3479 19.6625L44.0049 19.3204C44.781 18.9318 45.5809 18.5435 46.3687 18.1674C48.7203 17.0384 51.202 15.9119 53.133 15.1415C55.1355 14.3479 56.5746 13.9592 56.7803 14.3902L56.7917 14.4149L56.8029 14.4517C56.8213 14.7573 55.8876 16.0465 54.8814 17.4198C53.9838 18.6729 53.0256 20.0105 52.6824 20.6878C54.2263 20.3986 58.281 18.6783 61.5964 17.2618C63.6596 16.3839 65.4485 15.6232 66.1625 15.4042C67.4951 15.0135 69.4263 14.9268 71.4971 14.9769C73.5678 15.0392 76.9549 15.1792 78.8343 15.3479L78.8461 15.3481C79.3428 15.3816 80.1826 15.4214 80.3667 15.7299C80.4929 15.9642 80.3459 16.2545 79.6878 16.6576C77.7419 17.8219 74.3879 18.4668 72.3499 19.0822C69.8509 19.83 67.2804 20.6131 65.1854 21.9665C64.9221 22.1326 64.8139 22.2283 64.8251 22.2651C64.8361 22.3142 64.9965 22.3191 65.2609 22.3951C66.3031 22.6947 68.8988 23.3009 70.6859 23.2509C72.2094 23.2083 74.0279 22.8991 75.6101 22.4519C77.2043 21.9927 78.2461 21.3394 79.8064 20.7941C82.0096 20.0287 83.7123 19.4616 85.3297 19.0273Z" fill="white"></path> </svg> 